<svg viewBox="0 0 1000 1050" xmlns="http://www.w3.org/2000/svg" font-family="monospace">
<rect width="100%" height="100%" fill="#0f1419"/>
<text x="50" y="30" fill="#e6edf3" font-size="18" font-weight="bold">assets\IFC\AC20-FZK-Haus.ifc (39 sensors)</text>
<g>
<rect x="50" y="90" width="900" height="420" fill="#161c24" stroke="#2a3441" rx="6"/>
<text x="60" y="110" fill="#8b97a6" font-size="13">Floor 479</text>
<rect x="65.0" y="120.0" width="10" height="10" fill="none" stroke="#4ea8de" stroke-width="1.5"/>
<text x="77.0" y="118.0" fill="#4ea8de" font-size="10">Erdgeschoss</text>
<rect x="627.3" y="490.0" width="10" height="10" fill="none" stroke="#4ea8de" stroke-width="1.5"/>
<text x="639.3" y="488.0" fill="#4ea8de" font-size="10">4</text>
<rect x="362.0" y="490.0" width="10" height="10" fill="none" stroke="#4ea8de" stroke-width="1.5"/>
<text x="374.0" y="488.0" fill="#4ea8de" font-size="10">3</text>
<rect x="87.1" y="490.0" width="10" height="10" fill="none" stroke="#4ea8de" stroke-width="1.5"/>
<text x="99.1" y="488.0" fill="#4ea8de" font-size="10">2</text>
<rect x="925.0" y="131.4" width="10" height="10" fill="none" stroke="#4ea8de" stroke-width="1.5"/>
<text x="937.0" y="129.4" fill="#4ea8de" font-size="10">5</text>
<rect x="87.1" y="282.1" width="10" height="10" fill="none" stroke="#4ea8de" stroke-width="1.5"/>
<text x="99.1" y="280.1" fill="#4ea8de" font-size="10">1</text>
<rect x="87.1" y="273.0" width="10" height="10" fill="none" stroke="#4ea8de" stroke-width="1.5"/>
<text x="99.1" y="271.0" fill="#4ea8de" font-size="10">6</text>
<circle cx="332.4" cy="282.5" r="3.5" fill="#94a3b8"/>
<circle cx="632.3" cy="495.0" r="3.5" fill="#f87171"/>
<circle cx="632.3" cy="495.0" r="3.5" fill="#60a5fa"/>
<circle cx="632.3" cy="495.0" r="3.5" fill="#fbbf24"/>
<circle cx="632.3" cy="495.0" r="3.5" fill="#a78bfa"/>
<circle cx="632.3" cy="495.0" r="3.5" fill="#c084fc"/>
<circle cx="367.0" cy="495.0" r="3.5" fill="#f87171"/>
<circle cx="367.0" cy="495.0" r="3.5" fill="#60a5fa"/>
<circle cx="367.0" cy="495.0" r="3.5" fill="#fbbf24"/>
<circle cx="367.0" cy="495.0" r="3.5" fill="#a78bfa"/>
<circle cx="367.0" cy="495.0" r="3.5" fill="#c084fc"/>
<circle cx="92.1" cy="495.0" r="3.5" fill="#f87171"/>
<circle cx="92.1" cy="495.0" r="3.5" fill="#60a5fa"/>
<circle cx="92.1" cy="495.0" r="3.5" fill="#fbbf24"/>
<circle cx="92.1" cy="495.0" r="3.5" fill="#a78bfa"/>
<circle cx="92.1" cy="495.0" r="3.5" fill="#c084fc"/>
<circle cx="930.0" cy="136.4" r="3.5" fill="#f87171"/>
<circle cx="930.0" cy="136.4" r="3.5" fill="#60a5fa"/>
<circle cx="930.0" cy="136.4" r="3.5" fill="#fbbf24"/>
<circle cx="930.0" cy="136.4" r="3.5" fill="#a78bfa"/>
<circle cx="930.0" cy="136.4" r="3.5" fill="#c084fc"/>
<circle cx="92.1" cy="287.1" r="3.5" fill="#f87171"/>
<circle cx="92.1" cy="287.1" r="3.5" fill="#60a5fa"/>
<circle cx="92.1" cy="287.1" r="3.5" fill="#fbbf24"/>
<circle cx="92.1" cy="287.1" r="3.5" fill="#a78bfa"/>
<circle cx="92.1" cy="287.1" r="3.5" fill="#c084fc"/>
<circle cx="92.1" cy="278.0" r="3.5" fill="#f87171"/>
<circle cx="92.1" cy="278.0" r="3.5" fill="#60a5fa"/>
<circle cx="92.1" cy="278.0" r="3.5" fill="#fbbf24"/>
<circle cx="92.1" cy="278.0" r="3.5" fill="#a78bfa"/>
<circle cx="92.1" cy="278.0" r="3.5" fill="#c084fc"/>
</g>
<g>
<rect x="50" y="560" width="900" height="420" fill="#161c24" stroke="#2a3441" rx="6"/>
<text x="60" y="580" fill="#8b97a6" font-size="13">Floor 35065</text>
<rect x="98.1" y="590.0" width="10" height="10" fill="none" stroke="#4ea8de" stroke-width="1.5"/>
<text x="110.1" y="588.0" fill="#4ea8de" font-size="10">Dachgeschoss</text>
<rect x="872.1" y="957.4" width="10" height="10" fill="none" stroke="#4ea8de" stroke-width="1.5"/>
<text x="884.1" y="955.4" fill="#4ea8de" font-size="10">7</text>
<circle cx="930.0" cy="965.0" r="3.5" fill="#94a3b8"/>
<circle cx="70.0" cy="603.7" r="3.5" fill="#94a3b8"/>
<circle cx="930.0" cy="784.4" r="3.5" fill="#94a3b8"/>
<circle cx="877.1" cy="962.4" r="3.5" fill="#f87171"/>
<circle cx="877.1" cy="962.4" r="3.5" fill="#60a5fa"/>
<circle cx="877.1" cy="962.4" r="3.5" fill="#fbbf24"/>
<circle cx="877.1" cy="962.4" r="3.5" fill="#a78bfa"/>
<circle cx="877.1" cy="962.4" r="3.5" fill="#c084fc"/>
</g>
<text x="50" y="1017" fill="#8b97a6" font-size="12">Legend:</text>
<circle cx="50" cy="1035" r="4" fill="#f87171"/>
<text x="60" y="1039" fill="#e6edf3" font-size="11">temperature</text>
<circle cx="160" cy="1035" r="4" fill="#60a5fa"/>
<text x="170" y="1039" fill="#e6edf3" font-size="11">humidity</text>
<circle cx="270" cy="1035" r="4" fill="#a78bfa"/>
<text x="280" y="1039" fill="#e6edf3" font-size="11">co2</text>
<circle cx="380" cy="1035" r="4" fill="#fbbf24"/>
<text x="390" y="1039" fill="#e6edf3" font-size="11">occupancy</text>
<circle cx="490" cy="1035" r="4" fill="#94a3b8"/>
<text x="500" y="1039" fill="#e6edf3" font-size="11">structural</text>
<circle cx="600" cy="1035" r="4" fill="#c084fc"/>
<text x="610" y="1039" fill="#e6edf3" font-size="11">air_quality</text>
</svg>
